<?xml version="1.0" encoding="utf-8"?>
<!-- Generator: Adobe Illustrator 25.3.0, SVG Export Plug-In . SVG Version: 6.00 Build 0)  -->
<svg version="1.1" id="Capa_1" xmlns="http://www.w3.org/2000/svg" xmlns:xlink="http://www.w3.org/1999/xlink" x="0px" y="0px"
	 viewBox="0 0 500 500" style="enable-background:new 0 0 500 500;" xml:space="preserve">
<style type="text/css">
	.st0{fill:#712209;}
</style>
<g transform="translate(0.000000,500.000000) scale(0.100000,-0.100000)">
	<path class="st0" d="M2353,4966c-260-69-471-245-580-483c-18-40-29-52-41-49c-62,19-169,28-257,23c-409-24-737-321-806-732
		c-11-65-7-221,7-287c5-20,2-27-15-33c-90-28-322-232-411-361C-60,2595-17,1992,354,1602c123-130,241-211,400-277
		c88-36,275-85,329-85h27V625V10h1389h1390l6,42c3,24,4,234,2,468s-2,491,1,572l5,146l81,12c223,33,445,143,616,307
		c108,102,169,185,235,318c118,238,152,488,100,738c-70,334-259,595-568,782c-15,9-16,18-6,80c7,40,9,111,6,165
		c-30,487-432,846-914,817l-94-5l-31,61c-50,101-102,169-184,246c-96,90-195,149-322,191c-88,30-111,33-237,37
		C2461,4990,2434,4987,2353,4966z M2778,3704c297-51,544-161,783-350c55-43,116-99,134-124c80-109,96-265,40-384
		c-52-109-172-200-284-213l-48-5l-448-1064c-247-585-451-1064-454-1064s-206,476-451,1057l-445,1056l-62,13c-127,26-223,100-277,214
		c-27,58-31,75-31,155c0,81,3,97,32,158c37,78,96,139,228,237c261,194,542,299,890,334C2458,3731,2689,3720,2778,3704z"/>
	<path class="st0" d="M2315,3469c-148-20-333-77-466-144c-136-69-323-211-355-270s-4-143,60-177c27-15,153,43,250,115
		c141,103,344,188,519,217c34,5,118,10,185,10c257,0,507-83,707-236c61-47,171-104,200-104c30,0,75,30,91,62c11,21,15,46,11,77
		c-5,41-12,53-68,105c-116,109-326,231-491,285c-131,43-246,62-413,66C2457,3477,2354,3475,2315,3469z"/>
	<path class="st0" d="M2321,2955c-100-23-159-44-253-92c-93-48-225-152-220-174c5-27,647-1549,653-1549c3,0,153,350,333,778
		c232,550,325,781,318,792c-15,26-145,119-222,160c-129,67-232,91-400,96C2427,2969,2366,2966,2321,2955z M2847,2707
		c19-18,27-39,31-75c4-44,1-53-24-81c-38-41-79-53-129-35c-93,31-108,141-29,203C2736,2750,2810,2744,2847,2707z M2479,2489
		c128-71,111-261-28-304c-123-38-240,64-217,189C2255,2485,2381,2545,2479,2489z M2575,1956c41-17,65-60,65-117c0-33-6-47-34-75
		c-29-29-41-34-81-34s-52,5-81,34s-34,41-34,80c0,55,22,93,65,112C2514,1973,2533,1973,2575,1956z"/>
</g>
</svg>
